<?xml version="1.0" encoding="iso-8859-1"?>
<!-- Generator: Adobe Illustrator 19.0.0, SVG Export Plug-In . SVG Version: 6.00 Build 0)  -->
<svg version="1.1" id="Layer_1" xmlns="http://www.w3.org/2000/svg" xmlns:xlink="http://www.w3.org/1999/xlink" x="0px" y="0px"
	 viewBox="0 0 480 480" style="enable-background:new 0 0 480 480;" xml:space="preserve">
<g>
	<g>
		<g>
			<path d="M368,192v-16c0-12.224-9.216-22.224-21.048-23.704c-3.192-57.208-41.8-95.92-98.952-99.24V24c0-4.416,3.584-8,8-8h72
				c4.424,0,8-3.576,8-8s-3.576-8-8-8h-72c-13.232,0-24,10.768-24,24v29.056c-57.152,3.32-95.76,42.024-98.952,99.24
				C121.216,153.776,112,163.776,112,176v16c0,4.424,3.576,8,8,8h14.592l21.2,243.496C157.608,464.304,174.768,480,195.68,480h87.68
				c20.528,0,38.016-16.032,39.816-36.504L344.448,200H360C364.424,200,368,196.424,368,192z M232,69.032V88c0,4.424,3.576,8,8,8
				s8-3.576,8-8V69.032c48.232,3.144,79.896,34.728,83.024,82.968H148.976C152.104,103.752,183.768,72.168,232,69.032z
				 M307.232,442.104C306.16,454.384,295.672,464,283.36,464h-87.68c-12.56,0-22.856-9.416-23.952-21.896l-6.872-78.928
				C176.016,393.928,205.44,416,240,416c33.192,0,61.72-20.336,73.816-49.192L307.232,442.104z M176,336c0-35.288,28.712-64,64-64
				c35.288,0,64,28.712,64,64c0,35.288-28.712,64-64,64C204.712,400,176,371.288,176,336z M318.032,318.568
				C310.048,282.824,278.12,256,240,256c-39.376,0-72.128,28.632-78.72,66.152L150.648,200h177.744L318.032,318.568z M352,184
				h-14.88h-195.2H128v-8c0-4.416,3.584-8,8-8h4.72h198.56H344c4.416,0,8,3.584,8,8V184z"/>
			<path d="M209.136,344c2.912,11.192,11.672,19.96,22.864,22.864V376c0,4.424,3.576,8,8,8s8-3.576,8-8v-9.136
				c11.192-2.912,19.96-11.672,22.864-22.864H280c4.424,0,8-3.576,8-8s-3.576-8-8-8h-9.136
				c-2.912-11.192-11.672-19.96-22.864-22.864V296c0-4.424-3.576-8-8-8s-8,3.576-8,8v9.136
				c-11.192,2.912-19.96,11.672-22.864,22.864H200c-4.424,0-8,3.576-8,8s3.576,8,8,8H209.136z M240,320c8.824,0,16,7.176,16,16
				c0,8.824-7.176,16-16,16c-8.824,0-16-7.176-16-16C224,327.176,231.176,320,240,320z"/>
			<path d="M432,296h-64c-4.424,0-8,3.576-8,8s3.576,8,8,8h64c4.424,0,8-3.576,8-8S436.424,296,432,296z"/>
			<path d="M472,296h-8c-4.424,0-8,3.576-8,8s3.576,8,8,8h8c4.424,0,8-3.576,8-8S476.424,296,472,296z"/>
			<path d="M112,312c4.424,0,8-3.576,8-8s-3.576-8-8-8H48c-4.424,0-8,3.576-8,8s3.576,8,8,8H112z"/>
			<path d="M16,296H8c-4.424,0-8,3.576-8,8s3.576,8,8,8h8c4.424,0,8-3.576,8-8S20.424,296,16,296z"/>
			<path d="M378.504,149.496c2.048,0,4.096-0.784,5.656-2.344l45.256-45.256c3.128-3.128,3.128-8.184,0-11.312
				c-3.128-3.128-8.184-3.128-11.312,0l-45.256,45.256c-3.128,3.128-3.128,8.184,0,11.312
				C374.416,148.712,376.464,149.496,378.504,149.496z"/>
			<path d="M457.704,62.296c-3.128-3.128-8.184-3.128-11.312,0l-5.656,5.656c-3.128,3.128-3.128,8.184,0,11.312
				c1.56,1.56,3.608,2.344,5.656,2.344c2.048,0,4.096-0.784,5.656-2.344l5.656-5.656C460.832,70.488,460.832,65.424,457.704,62.296z
				"/>
			<path d="M119.832,388.848l-45.256,45.256c-3.128,3.128-3.128,8.184,0,11.312c1.56,1.56,3.608,2.344,5.656,2.344
				c2.048,0,4.096-0.784,5.656-2.344l45.256-45.256c3.128-3.128,3.128-8.184,0-11.312
				C128.016,385.72,122.96,385.728,119.832,388.848z"/>
			<path d="M51.952,456.736l-5.656,5.656c-3.128,3.128-3.128,8.184,0,11.312c1.56,1.56,3.608,2.344,5.656,2.344
				c2.048,0,4.096-0.784,5.656-2.344l5.656-5.656c3.128-3.128,3.128-8.184,0-11.312C60.136,453.608,55.08,453.608,51.952,456.736z"
				/>
			<path d="M95.832,147.152c1.56,1.56,3.608,2.344,5.656,2.344c2.048,0,4.096-0.784,5.656-2.344c3.128-3.128,3.128-8.184,0-11.312
				L61.888,90.584c-3.128-3.128-8.184-3.128-11.312,0s-3.128,8.184,0,11.312L95.832,147.152z"/>
			<path d="M39.264,67.952l-5.656-5.656c-3.128-3.128-8.184-3.128-11.312,0c-3.128,3.128-3.128,8.184,0,11.312l5.656,5.656
				c1.56,1.56,3.608,2.344,5.656,2.344c2.048,0,4.096-0.784,5.656-2.344C42.392,76.144,42.392,71.08,39.264,67.952z"/>
			<path d="M360.168,388.848c-3.128-3.128-8.184-3.128-11.312,0c-3.128,3.128-3.128,8.184,0,11.312l45.256,45.256
				c1.56,1.56,3.608,2.344,5.656,2.344c2.048,0,4.096-0.784,5.656-2.344c3.128-3.128,3.128-8.184,0-11.312L360.168,388.848z"/>
			<path d="M428.048,456.736c-3.128-3.128-8.184-3.128-11.312,0c-3.128,3.128-3.128,8.184,0,11.312l5.656,5.656
				c1.56,1.56,3.608,2.344,5.656,2.344c2.048,0,4.096-0.784,5.656-2.344c3.128-3.128,3.128-8.184,0-11.312L428.048,456.736z"/>
		</g>
	</g>
</g>
<g>
</g>
<g>
</g>
<g>
</g>
<g>
</g>
<g>
</g>
<g>
</g>
<g>
</g>
<g>
</g>
<g>
</g>
<g>
</g>
<g>
</g>
<g>
</g>
<g>
</g>
<g>
</g>
<g>
</g>
</svg>
