<?xml version="1.0" encoding="iso-8859-1"?>
<!-- Generator: Adobe Illustrator 19.0.0, SVG Export Plug-In . SVG Version: 6.00 Build 0)  -->
<svg version="1.1" id="Layer_1" xmlns="http://www.w3.org/2000/svg" xmlns:xlink="http://www.w3.org/1999/xlink" x="0px" y="0px"
	 viewBox="0 0 511.999 511.999" style="enable-background:new 0 0 511.999 511.999;" xml:space="preserve">
<g>
	<g>
		<path d="M380.599,51.563C347.311,18.312,303.174,0,256.03,0s-91.41,18.312-124.698,51.563
			c-33.319,33.283-51.609,77.616-51.609,124.832v7.866h352.385v-7.866C432.108,129.179,413.917,84.846,380.599,51.563z
			 M287.379,168.53v-8.39h-14.683v8.39H95.523c1.391-29.151,10.503-56.859,26.341-80.755h13.444V72.044h-1.563
			c2.748-3.21,5.625-6.332,8.645-9.351c30.317-30.284,70.664-46.962,113.61-46.962s83.293,16.677,113.609,46.962
			c9.843,9.832,18.25,20.726,25.118,32.424h-2.473v15.731h10.565c8.031,18.013,12.695,37.502,13.658,57.682H287.379z"/>
	</g>
</g>
<g>
	<g>
		<path d="M388.416,216.772H207.673v15.732h88.096v6.293H311.5v-6.293h76.916c11.34,0,19.57,7.998,19.57,19.017v0.157
			c0,11.402-8.779,20.68-19.57,20.68h-37.063v-8.39h-15.731v8.39H135.308v-8.39h-15.731v7.979
			c-9.419-1.926-16.766-10.449-16.78-20.329c0.017-10.719,9.142-19.113,20.788-19.113h11.724v-15.732h-11.724
			c-20.458,0-36.489,15.287-36.519,34.815c0,0.009,0,0.019,0,0.028c0,0.009,0,0.02,0,0.029
			c0.033,19.761,16.744,36.443,36.519,36.443h264.833c19.465,0,35.301-16.333,35.301-36.411v-0.157
			C423.718,231.711,408.541,216.772,388.416,216.772z"/>
	</g>
</g>
<g>
	<g>
		<path d="M211.861,191.31c-15.4,0-27.929,12.529-27.929,27.929v16.05c0,6.726-5.471,12.197-12.197,12.197
			s-12.197-5.471-12.197-12.197v-16.05c0-15.4-12.53-27.929-27.929-27.929H95.496v15.731h36.114c6.726,0,12.197,5.471,12.197,12.197
			v16.05c0,15.4,12.529,27.929,27.929,27.929c15.4,0,27.929-12.529,27.929-27.929v-16.05c0-6.726,5.471-12.197,12.197-12.197
			h204.643V191.31H211.861z"/>
	</g>
</g>
<g>
	<g>
		<rect x="119.581" y="134.965" width="15.731" height="15.731"/>
	</g>
</g>
<g>
	<g>
		<rect x="135.312" y="111.893" width="16.78" height="15.731"/>
	</g>
</g>
<g>
	<g>
		<rect x="224.457" y="134.965" width="14.683" height="15.731"/>
	</g>
</g>
<g>
	<g>
		<rect x="183.555" y="120.283" width="15.731" height="15.731"/>
	</g>
</g>
<g>
	<g>
		<rect x="239.14" y="79.381" width="16.78" height="15.731"/>
	</g>
</g>
<g>
	<g>
		<rect x="295.773" y="120.283" width="16.78" height="15.731"/>
	</g>
</g>
<g>
	<g>
		<rect x="335.626" y="72.04" width="16.78" height="15.731"/>
	</g>
</g>
<g>
	<g>
		<rect x="281.09" y="55.264" width="14.683" height="15.731"/>
	</g>
</g>
<g>
	<g>
		<rect x="360.796" y="134.965" width="15.731" height="15.731"/>
	</g>
</g>
<g>
	<g>
		<rect x="176.214" y="55.264" width="15.731" height="15.731"/>
	</g>
</g>
<g>
	<g>
		<rect x="191.945" y="79.381" width="15.731" height="15.731"/>
	</g>
</g>
<g>
	<g>
		<rect x="224.457" y="23.801" width="14.683" height="15.731"/>
	</g>
</g>
<g>
	<g>
		<path d="M416.504,295.638H296.286v23.916c0,0.088-0.071,0.159-0.159,0.159c-8.762,0-15.891,7.128-15.891,15.891
			c0,0.088-0.071,0.159-0.159,0.159h-8.025c-0.088,0-0.159-0.071-0.159-0.159c0-8.762-7.128-15.891-15.891-15.891
			c-0.087,0-0.159-0.071-0.159-0.159v-23.916H95.496v15.731H240.11v8.185c0,8.762,7.128,15.891,15.891,15.891
			c0.088,0,0.159,0.071,0.159,0.159c0,8.762,7.128,15.891,15.891,15.891h8.025c8.761,0,15.891-7.128,15.891-15.891
			c0-0.088,0.071-0.159,0.159-0.159c8.762,0,15.891-7.128,15.891-15.891v-8.185h104.487L416.504,295.638L416.504,295.638z"/>
	</g>
</g>
<g>
	<g>
		<rect x="95.459" y="320.596" width="39.853" height="15.731"/>
	</g>
</g>
<g>
	<g>
		<rect x="143.702" y="320.596" width="39.853" height="15.731"/>
	</g>
</g>
<g>
	<g>
		<rect x="191.945" y="320.596" width="39.853" height="15.731"/>
	</g>
</g>
<g>
	<g>
		<rect x="328.285" y="320.596" width="39.853" height="15.731"/>
	</g>
</g>
<g>
	<g>
		<rect x="376.528" y="320.596" width="39.853" height="15.731"/>
	</g>
</g>
<g>
	<g>
		<path d="M392.429,343.789h-88.278v15.731h31.47v8.274h15.731v-8.274h41.076c8.938,0,16.21,7.272,16.21,16.21
			c0,8.938-7.272,16.21-16.21,16.21H190.892v-8.414h-15.731v8.414h-55.589c-8.939,0-16.211-7.272-16.211-16.21
			c0-8.939,7.272-16.21,16.211-16.21h128.403v-15.731H119.572c-17.613,0-31.942,14.329-31.942,31.941
			c0,17.612,14.329,31.941,31.942,31.941h272.857c17.612,0,31.941-14.329,31.941-31.941S410.041,343.789,392.429,343.789z"/>
	</g>
</g>
<g>
	<g>
		<path d="M376.379,440.092c-12.714,0-23.057,10.344-23.057,23.057v0.859c0,2.405-1.053,4.68-2.888,6.24
			c-1.858,1.582-4.246,2.23-6.729,1.827c-3.786-0.616-6.752-4.537-6.752-8.926c0-12.714-10.343-23.057-23.057-23.057H79.605v7.866
			c0,35.313,28.73,64.042,64.042,64.042h224.706c35.313,0,64.042-28.729,64.042-64.042v-7.866H376.379z M368.354,496.269H143.648
			c-23.961,0-43.903-17.534-47.67-40.445h217.918c4.04,0,7.326,3.287,7.326,7.326c0,12.09,8.58,22.603,19.958,24.453
			c7.003,1.14,14.093-0.818,19.446-5.371c5.355-4.555,8.428-11.198,8.428-18.223v-0.859c0-4.04,3.287-7.326,7.326-7.326h39.645
			C412.257,478.734,392.315,496.269,368.354,496.269z"/>
	</g>
</g>
<g>
	<g>
		<rect x="95.459" y="417.083" width="320.922" height="15.731"/>
	</g>
</g>
<g>
	<g>
		<rect x="239.14" y="248.232" width="16.78" height="15.731"/>
	</g>
</g>
<g>
	<g>
		<rect x="376.528" y="248.232" width="15.731" height="15.731"/>
	</g>
</g>
<g>
	<g>
		<rect x="119.581" y="368.84" width="15.731" height="15.731"/>
	</g>
</g>
<g>
	<g>
		<rect x="239.14" y="368.84" width="16.78" height="15.731"/>
	</g>
</g>
<g>
	<g>
		<rect x="375.479" y="383.522" width="15.731" height="8.39"/>
	</g>
</g>
<g>
</g>
<g>
</g>
<g>
</g>
<g>
</g>
<g>
</g>
<g>
</g>
<g>
</g>
<g>
</g>
<g>
</g>
<g>
</g>
<g>
</g>
<g>
</g>
<g>
</g>
<g>
</g>
<g>
</g>
</svg>
