<?xml version="1.0" encoding="iso-8859-1"?>
<!-- Generator: Adobe Illustrator 16.0.0, SVG Export Plug-In . SVG Version: 6.00 Build 0)  -->
<!DOCTYPE svg PUBLIC "-//W3C//DTD SVG 1.1//EN" "http://www.w3.org/Graphics/SVG/1.1/DTD/svg11.dtd">
<svg version="1.1" id="Capa_1" xmlns="http://www.w3.org/2000/svg" xmlns:xlink="http://www.w3.org/1999/xlink" x="0px" y="0px"
	 width="205.027px" height="205.027px" viewBox="0 0 205.027 205.027" style="enable-background:new 0 0 205.027 205.027;"
	 xml:space="preserve">
<g>
	<g>
		<path d="M82.943,49.666c1.658,0,3.286-0.454,4.712-1.315c4.306-2.602,5.694-8.222,3.094-12.527
			c-0.555-0.92-0.258-2.121,0.661-2.676c0.307-0.186,0.643-0.279,0.998-0.279c0.695,0,1.321,0.352,1.677,0.94
			c1.642,2.72,4.637,4.409,7.816,4.409c1.658,0,3.287-0.454,4.713-1.315c4.305-2.601,5.692-8.22,3.094-12.527
			c-3.633-6.017-10.27-9.755-17.319-9.755c-3.665,0-7.265,1.004-10.411,2.903c-9.534,5.757-12.608,18.196-6.853,27.73
			C76.768,47.976,79.763,49.666,82.943,49.666z M85.468,23.304c2.093-1.264,4.486-1.931,6.921-1.931c4.7,0,9.122,2.488,11.54,6.493
			c0.676,1.121,0.315,2.584-0.805,3.26c-0.377,0.228-0.789,0.343-1.223,0.343c-0.842,0-1.604-0.429-2.037-1.147
			c-1.564-2.592-4.421-4.202-7.456-4.202c-1.58,0-3.132,0.432-4.487,1.251c-4.105,2.479-5.429,7.836-2.951,11.942
			c0.677,1.121,0.315,2.584-0.805,3.26c-0.377,0.228-0.788,0.343-1.223,0.343c-0.842,0-1.604-0.429-2.038-1.149
			C77.073,35.42,79.12,27.137,85.468,23.304z"/>
		<path d="M135.79,31.952c0.699,0.073,1.408,0.11,2.107,0.11h0.002c10.369,0,19.001-7.782,20.075-18.1
			c0.254-2.424-0.45-4.803-1.985-6.696s-3.715-3.075-6.14-3.328c-0.316-0.033-0.639-0.05-0.957-0.05
			c-4.683,0-8.581,3.516-9.068,8.178c-0.103,0.979-0.951,1.745-1.932,1.745c-0.067,0-0.137-0.004-0.21-0.011
			c-0.515-0.054-0.979-0.306-1.308-0.711c-0.329-0.406-0.48-0.913-0.427-1.427c0.254-2.425-0.453-4.801-1.988-6.695
			c-1.535-1.893-3.716-3.075-6.14-3.328c-0.316-0.033-0.637-0.05-0.953-0.05c-4.682,0-8.58,3.515-9.069,8.177
			c-0.56,5.358,1.004,10.619,4.406,14.813S130.431,31.392,135.79,31.952z M124.513,10.467c0.127-1.214,1.141-2.129,2.355-2.129
			c0.084,0,0.169,0.005,0.254,0.014c0.631,0.065,1.197,0.373,1.597,0.865c0.399,0.493,0.583,1.111,0.518,1.743
			c-0.241,2.308,0.433,4.574,1.897,6.379c1.464,1.806,3.542,2.933,5.848,3.174c0.304,0.032,0.61,0.048,0.913,0.048
			c4.466,0,8.182-3.351,8.645-7.794c0.136-1.298,1.29-2.257,2.611-2.115c0.631,0.065,1.196,0.373,1.596,0.865
			c0.398,0.492,0.582,1.111,0.516,1.744c-0.716,6.87-6.461,12.052-13.364,12.051c-0.467,0-0.94-0.025-1.407-0.073
			c-3.565-0.373-6.776-2.117-9.042-4.911C125.183,17.533,124.141,14.031,124.513,10.467z"/>
		<path d="M62.678,30.814c2.839-4.595,3.721-10.013,2.482-15.257C62.996,6.397,54.913,0,45.504,0c-1.556,0-3.118,0.182-4.642,0.543
			c-2.373,0.56-4.385,2.01-5.666,4.083c-1.282,2.073-1.678,4.521-1.118,6.893c0.977,4.14,4.627,7.031,8.877,7.031
			c0.705,0,1.412-0.083,2.103-0.246c1.037-0.246,2.103,0.433,2.343,1.448c0.119,0.504,0.033,1.027-0.241,1.471
			s-0.703,0.754-1.208,0.873c-2.372,0.56-4.384,2.011-5.665,4.084c-1.281,2.074-1.678,4.522-1.118,6.893
			c0.978,4.138,4.627,7.029,8.874,7.029l0,0c0.705,0,1.412-0.083,2.102-0.246C55.388,38.619,59.839,35.407,62.678,30.814z
			 M56.936,27.265c-1.891,3.06-4.854,5.199-8.343,6.023c-0.182,0.043-0.367,0.065-0.55,0.065h-0.001
			c-1.103,0-2.051-0.753-2.306-1.832c-0.146-0.617-0.043-1.253,0.291-1.792c0.334-0.54,0.857-0.917,1.474-1.063
			c2.259-0.533,4.177-1.916,5.399-3.894c1.223-1.979,1.602-4.312,1.068-6.571c-0.931-3.944-4.412-6.699-8.464-6.699
			c-0.671,0-1.345,0.079-2,0.234c-0.182,0.043-0.367,0.065-0.55,0.065c-1.104,0-2.053-0.753-2.307-1.832
			c-0.146-0.617-0.042-1.255,0.291-1.794c0.334-0.54,0.857-0.917,1.475-1.063c1.017-0.24,2.057-0.362,3.091-0.362
			c6.265,0,11.646,4.26,13.087,10.359C59.415,20.598,58.827,24.205,56.936,27.265z"/>
		<path d="M171.197,181.995l-0.002-0.04c-0.001-0.109-0.009-0.219-0.02-0.326c-0.003-0.029-0.009-0.055-0.012-0.082
			c-0.013-0.097-0.029-0.191-0.05-0.285c0,0-0.002-0.018-0.005-0.026c-0.029-0.125-2.91-12.736-2.91-31.479V108.67
			c0-18.693,2.781-31.424,2.81-31.548l0.003-0.018c0.023-0.106,0.04-0.214,0.053-0.323c0.002-0.014,0.006-0.027,0.007-0.04
			c0.012-0.117,0.019-0.235,0.019-0.355v-0.017v-0.002V56.734c0-1.864-1.511-3.375-3.375-3.375h-9.434
			c0.209-7.608-3.929-14.849-10.719-18.441c-1.311-0.694-2.784-1.06-4.263-1.06c-3.393,0-6.485,1.861-8.071,4.858
			c-2.352,4.446-0.647,9.978,3.8,12.331c0.826,0.438,1.197,1.424,0.909,2.311H55.953c-1.864,0-3.375,1.511-3.375,3.375v19.652
			l0.001,0.018c0,0,0.003,0.048,0.003,0.072c0.003,0.099,0.008,0.198,0.019,0.295c0.004,0.032,0.01,0.065,0.015,0.097
			c0.013,0.091,0.028,0.18,0.048,0.268c0.003,0.012,0.004,0.025,0.007,0.037c0.03,0.126,3.012,12.836,3.012,31.498v41.086
			c0,18.678-2.881,31.355-2.91,31.479c-0.003,0.01-0.003,0.021-0.006,0.032c-0.019,0.086-0.033,0.174-0.046,0.264
			c-0.004,0.033-0.011,0.066-0.015,0.1c-0.011,0.1-0.016,0.2-0.018,0.303c0,0.021-0.004,0.043-0.004,0.063V182v19.652
			c0,1.863,1.511,3.375,3.375,3.375H167.82c1.863,0,3.375-1.512,3.375-3.375V182v-0.005H171.197z M89.74,185.375v12.902H77.915
			v-12.902H89.74z M96.49,185.375h11.825v12.902H96.49V185.375z M115.064,185.375h11.364v12.902h-11.364V185.375z M133.179,185.375
			h11.826v12.902h-11.826V185.375z M60.149,178.625c0.915-5.361,2.284-15.6,2.284-28.867v-41.086c0-13.27-1.417-23.529-2.366-28.91
			h103.588c-0.883,5.36-2.206,15.622-2.206,28.91v41.086c0,13.268,1.369,23.506,2.285,28.867H60.149z M144.896,60.109v12.902
			h-11.825V60.109H144.896z M126.322,73.011h-11.364V60.109h11.364V73.011z M108.208,73.011H96.383V60.109h11.825V73.011z
			 M89.633,73.011H77.808V60.109h11.825V73.011z M164.34,73.011h-12.692V60.109h12.692V73.011z M141.195,41.873
			c0.413-0.781,1.219-1.265,2.104-1.265c0.387,0,0.76,0.093,1.107,0.276c4.021,2.128,6.646,6.186,7.073,10.629h-4.786
			c-0.391-2.661-1.996-5.101-4.51-6.431C141.028,44.469,140.584,43.03,141.195,41.873z M59.328,60.109h11.729v12.902H59.328V60.109z
			 M59.436,185.375h11.729v12.902H59.436V185.375z M164.447,198.277h-12.692v-12.902h12.692V198.277z"/>
		<path d="M146.231,108.588h-7.479c-1.864,0-3.375,1.512-3.375,3.375c0,1.864,1.511,3.375,3.375,3.375h4.104v27.096H81.423v-27.096
			h39.106c1.863,0,3.375-1.511,3.375-3.375c0-1.863-1.512-3.375-3.375-3.375H78.048c-1.864,0-3.375,1.512-3.375,3.375v33.846
			c0,1.863,1.511,3.375,3.375,3.375h68.184c1.864,0,3.375-1.512,3.375-3.375v-33.846C149.606,110.1,148.096,108.588,146.231,108.588
			z"/>
	</g>
</g>
<g>
</g>
<g>
</g>
<g>
</g>
<g>
</g>
<g>
</g>
<g>
</g>
<g>
</g>
<g>
</g>
<g>
</g>
<g>
</g>
<g>
</g>
<g>
</g>
<g>
</g>
<g>
</g>
<g>
</g>
</svg>
